<svg xmlns="http://www.w3.org/2000/svg" xmlns:xlink="http://www.w3.org/1999/xlink"><symbol fill="none" viewBox="0 0 20 20" id="guide-home" xmlns="http://www.w3.org/2000/svg"><path d="M15 16h-3v-6H8v6H5v-6H3v-.75L10 3l7 6.25V10h-2v6Z" fill="currentColor"/></symbol><symbol fill="none" viewBox="0 0 24 24" id="masthead-bell" xmlns="http://www.w3.org/2000/svg"><path d="M14 20c0 .53-.264 1.039-.732 1.414-.47.375-1.105.586-1.768.586s-1.299-.21-1.768-.586C9.264 21.04 9 20.53 9 20h5ZM13 4.176c2.867.677 5 3.25 5 6.324v6l2 1.5v1H3v-1l2-1.5v-6a6.501 6.501 0 0 1 5-6.324V3.5a1.5 1.5 0 0 1 3 0v.676ZM7 17h9v-6.5a4.501 4.501 0 0 0-3.46-4.378l-1.04-.246-1.04.246A4.501 4.501 0 0 0 7 10.5V17Z" fill="currentColor"/></symbol><symbol fill="none" viewBox="0 0 16 16" id="masthead-guide" xmlns="http://www.w3.org/2000/svg"><path d="M14 13H1v-2h13v2Zm0-4H1V7h13v2Zm0-4H1V3h13v2Z" fill="currentColor"/></symbol><symbol fill="none" viewBox="0 0 15 15" id="masthead-search" xmlns="http://www.w3.org/2000/svg"><circle cx="5.5" cy="5.5" r="4.25" stroke="currentColor" stroke-width="1.5"/><path d="M8.5 8.5 14 14" stroke="currentColor" stroke-width="1.5"/></symbol><symbol fill="none" viewBox="0 0 24 24" id="masthead-upload" xmlns="http://www.w3.org/2000/svg"><path d="M19 20H5v-2h14v2Zm-4-4H9v-6H5l7-7 7 7h-4v6Z" fill="currentColor"/></symbol><symbol fill="none" viewBox="0 0 20 20" id="watch-add-to" xmlns="http://www.w3.org/2000/svg"><path d="M11 12h7V9h-7V2H8v7H1v3h7v7h3v-7Z" fill="currentColor"/></symbol><symbol fill="none" viewBox="0 0 20 20" id="watch-dislike" xmlns="http://www.w3.org/2000/svg"><path d="M5.95 18.923c-1.27.67-1.694-4.33 1.487-5.932-3.054-.578-5.38-.963-5.38-1.59.001-.628 2.352-9.4 3.79-9.4 2.84 0 7.456 1.715 8.683 1.716v8.873c-1.66 1.156-2.58 1.61-4.312 2.997-1.733 1.386-2.998 2.664-4.268 3.336ZM16.175 3.774H19v8.5h-2.826v-8.5Z" fill="currentColor"/></symbol><symbol fill="none" viewBox="0 0 20 20" id="watch-like" xmlns="http://www.w3.org/2000/svg"><path d="M14.05 1.077c1.27-.67 1.694 4.33-1.487 5.932 3.054.578 5.38.963 5.38 1.59-.001.628-2.353 9.4-3.79 9.4-2.84 0-7.456-1.715-8.683-1.716V7.41C7.13 6.254 8.05 5.8 9.782 4.413c1.733-1.386 2.998-2.664 4.268-3.336ZM3.825 16.226H1v-8.5h2.826v8.5Z" fill="currentColor"/></symbol><symbol fill="none" viewBox="0 0 20 20" id="watch-more" xmlns="http://www.w3.org/2000/svg"><circle cx="3" cy="10" r="2" fill="currentColor"/><circle cx="10" cy="10" r="2" fill="currentColor"/><circle cx="17" cy="10" r="2" fill="currentColor"/></symbol><symbol fill="none" viewBox="0 0 20 20" id="watch-share" xmlns="http://www.w3.org/2000/svg"><path d="M19 10.5 12 18v-4.5c-5 0-7.215 1.769-11 4.5C2.5 13.5 5 7.5 12 7.5V3l7 7.5Z" fill="currentColor"/></symbol></svg>