<svg xmlns="http://www.w3.org/2000/svg" width="120" height="90" fill="none"><path fill="#ccc" d="M0 0h120v90H0z"/><g filter="url(#A)"><path d="M60.023 28s11.431 0 19.034.542c1.065.123 3.371.123 5.449 2.217 1.622 1.601 2.154 5.223 2.154 5.223.005.04.557 4.282.507 8.523v3.99a78.79 78.79 0 0 1-.532 8.523s-.532 3.621-2.154 5.223c-2.078 2.094-4.385 2.094-5.449 2.217-7.603.517-19.034.542-19.034.542-.071-.001-14.127-.124-18.475-.518-1.217-.222-3.929-.147-6.007-2.241-1.622-1.601-2.154-5.223-2.154-5.223-.004-.035-.532-4.28-.532-8.523v-3.99c0-4.244.528-8.488.532-8.523 0 0 .532-3.621 2.154-5.223 2.078-2.094 4.385-2.094 5.449-2.217 7.607-.54 18.97-.542 19.033-.542h.025zM49.798 43.5a3 3 0 1 0 0 6 3 3 0 1 0 0-6zM60 43.5a3 3 0 1 0 0 6 3 3 0 1 0 0-6zm10.202 0a3 3 0 1 0 0 6 3 3 0 1 0 0-6z" fill="#868686"/></g><defs><filter id="A" x="16.829" y="9" width="86.342" height="69" filterUnits="userSpaceOnUse" color-interpolation-filters="sRGB"><feFlood flood-opacity="0" result="A"/><feColorMatrix in="SourceAlpha" values="0 0 0 0 0 0 0 0 0 0 0 0 0 0 0 0 0 0 127 0" result="B"/><feOffset dy="-3"/><feGaussianBlur stdDeviation="8"/><feComposite in2="B" operator="out"/><feColorMatrix values="0 0 0 0 1 0 0 0 0 1 0 0 0 0 1 0 0 0 0.8 0"/><feBlend in2="A"/><feBlend in="SourceGraphic" result="D"/><feColorMatrix in="SourceAlpha" values="0 0 0 0 0 0 0 0 0 0 0 0 0 0 0 0 0 0 127 0" result="B"/><feOffset dy="1"/><feGaussianBlur stdDeviation="1"/><feComposite in2="B" operator="arithmetic" k2="-1" k3="1"/><feColorMatrix values="0 0 0 0 0 0 0 0 0 0 0 0 0 0 0 0 0 0 0.15 0"/><feBlend in2="D"/></filter></defs></svg>