<svg width="48" height="48" viewBox="0 0 48 48" fill="none" xmlns="http://www.w3.org/2000/svg">
<g clip-path="url(#clip0_1_27)">
<rect width="48" height="48" fill="#A0C3FF"/>
<circle cx="24" cy="18.4729" r="8.84075" fill="#4374E0"/>
<path d="M8.97368 44.5043C8.97368 40.3141 8.97368 37.523 9.74281 35.8716C10.7573 33.6935 12.6928 32.6581 15.1278 31.7506C16.9738 31.0626 19.3159 30.4108 24 30.4108C28.6841 30.4108 31.0262 31.0626 32.8722 31.7506C35.3072 32.6581 37.2427 33.6935 38.2572 35.8716C39.0263 37.523 39.0263 40.3141 39.0263 44.5043V49.1382C39.0263 53.8523 39.0263 56.2093 37.5619 57.6738C36.0974 59.1383 33.7404 59.1383 29.0263 59.1383H18.9737C14.2596 59.1383 11.9026 59.1383 10.4381 57.6738C8.97368 56.2093 8.97368 53.8523 8.97368 49.1383V44.5043Z" fill="#4374E0"/>
</g>
<defs>
<clipPath id="clip0_1_27">
<rect width="48" height="48" fill="white"/>
</clipPath>
</defs>
</svg>
