<svg width="20" height="20" viewBox="0 0 20 20" fill="none" xmlns="http://www.w3.org/2000/svg">
<path d="M11 14.9004C11.7595 14.7462 12.4559 14.4189 13.0479 13.9629L14.8535 15.7676L16.2676 14.3535L14.3594 12.4463C14.6095 12.0016 14.7947 11.5156 14.8994 11H17V9H14.8994C14.7948 8.48464 14.6092 7.9992 14.3594 7.55469L16.2676 5.64648L14.8535 4.23242L13.0479 6.03809C12.4558 5.58197 11.7596 5.2548 11 5.10059V3H9V5.10059C8.24011 5.25485 7.54333 5.58173 6.95117 6.03809L5.14648 4.23242L3.73242 5.64648L5.63965 7.55469C5.38989 7.99908 5.20518 8.4848 5.10059 9H3V11H5.10059C5.20524 11.5155 5.38968 12.0017 5.63965 12.4463L3.73242 14.3535L5.14648 15.7676L6.95117 13.9629C7.54327 14.4191 8.24024 14.7462 9 14.9004V17H11V14.9004ZM10 13C8.34315 13 7 11.6569 7 10C7 8.34315 8.34315 7 10 7C11.6569 7 13 8.34315 13 10C13 11.6569 11.6569 13 10 13Z" fill="#7E7E7E"/>
</svg>
