<svg width="20" height="20" viewBox="0 0 20 20" fill="none" xmlns="http://www.w3.org/2000/svg">
<path fill-rule="evenodd" clip-rule="evenodd" d="M10 3C13.866 3 17 6.13401 17 10C17 10.237 16.9879 10.4712 16.9648 10.7021C16.9629 10.7221 16.9602 10.7419 16.958 10.7617C16.9474 10.8597 16.9345 10.957 16.9199 11.0537C16.9162 11.0786 16.9112 11.1032 16.9072 11.1279C16.8934 11.2134 16.8792 11.2984 16.8623 11.3828C16.8553 11.4178 16.8474 11.4525 16.8398 11.4873C16.823 11.5649 16.8055 11.6421 16.7861 11.7188C16.7738 11.7676 16.7595 11.8158 16.7461 11.8643C16.7327 11.9129 16.7195 11.9615 16.7051 12.0098C16.6859 12.074 16.6655 12.1377 16.6445 12.2012C16.6292 12.2475 16.614 12.2939 16.5977 12.3398C16.5731 12.4092 16.5462 12.4776 16.5195 12.5459C16.51 12.5703 16.501 12.5949 16.4912 12.6191C16.4616 12.6924 16.4304 12.7649 16.3984 12.8369C16.3837 12.87 16.3687 12.9028 16.3535 12.9355C16.3195 13.0091 16.2846 13.0821 16.248 13.1543C16.2436 13.163 16.2398 13.172 16.2354 13.1807C16.1906 13.2682 16.143 13.3541 16.0947 13.4395C16.085 13.4566 16.0762 13.4742 16.0664 13.4912C16.0256 13.562 15.9836 13.632 15.9404 13.7012C15.9273 13.7222 15.9137 13.7428 15.9004 13.7637C15.8522 13.8391 15.803 13.9138 15.752 13.9873C15.7405 14.0038 15.7284 14.0198 15.7168 14.0361C14.4491 15.8284 12.3623 17 10 17C7.85094 17 5.9286 16.0311 4.64453 14.5068C4.64273 14.5047 4.64144 14.5021 4.63965 14.5C4.52282 14.361 4.41157 14.2173 4.30566 14.0693C4.28121 14.0352 4.25627 14.0014 4.23242 13.9668C4.19565 13.9134 4.16031 13.8591 4.125 13.8047C4.10022 13.7665 4.0758 13.7281 4.05176 13.6895C4.0197 13.6379 3.98875 13.5857 3.95801 13.5332C3.93463 13.4933 3.91127 13.4535 3.88867 13.4131C3.85597 13.3547 3.82403 13.2958 3.79297 13.2363C3.77349 13.1991 3.75418 13.1617 3.73535 13.124C3.70518 13.0636 3.67592 13.0028 3.64746 12.9414C3.63036 12.9045 3.61413 12.8673 3.59766 12.8301C3.57059 12.7689 3.54391 12.7076 3.51855 12.6455C3.49977 12.5996 3.4817 12.5533 3.46387 12.5068C3.44322 12.453 3.42267 12.3992 3.40332 12.3447C3.38251 12.2862 3.36304 12.2272 3.34375 12.168C3.32905 12.1228 3.31361 12.0778 3.2998 12.0322C3.27906 11.9638 3.26087 11.8945 3.24219 11.8252C3.23264 11.7898 3.22287 11.7544 3.21387 11.7188C3.19451 11.6421 3.17696 11.5649 3.16016 11.4873C3.15261 11.4525 3.14374 11.4179 3.13672 11.3828C3.1198 11.2985 3.10565 11.2134 3.0918 11.1279C3.08779 11.1032 3.08285 11.0786 3.0791 11.0537C3.0645 10.957 3.0526 10.8596 3.04199 10.7617C3.03984 10.7418 3.03617 10.7221 3.03418 10.7021C3.01117 10.4712 3 10.237 3 10C3 6.13401 6.13401 3 10 3ZM10 10.625C8.28543 10.625 6.76193 11.4438 5.7998 12.7119C6.69043 14.0885 8.23842 15 10 15C11.7609 15 13.3074 14.0886 14.1982 12.7129C13.2364 11.4447 11.7145 10.625 10 10.625ZM10 5.07617C8.81136 5.07617 7.84766 6.03988 7.84766 7.22852C7.84776 8.41706 8.81143 9.38086 10 9.38086C11.1886 9.38086 12.1522 8.41706 12.1523 7.22852C12.1523 6.03988 11.1886 5.07617 10 5.07617Z" fill="currentColor"/>
</svg>
