<svg width="20" height="20" viewBox="0 0 20 20" fill="none" xmlns="http://www.w3.org/2000/svg">
<path d="M14 9C15.4142 9 16.1212 9.00011 16.5605 9.43945C16.9999 9.87879 17 10.5858 17 12V14C17 15.4142 16.9999 16.1212 16.5605 16.5605C16.1212 16.9999 15.4142 17 14 17H7C5.58579 17 4.87879 16.9999 4.43945 16.5605C4.00011 16.1212 4 15.4142 4 14V12C4 10.5858 4.00011 9.87879 4.43945 9.43945C4.87879 9.00011 5.58579 9 7 9H14ZM9 15L12.4639 13L9 11V15ZM13 6C14.4142 6 15.1212 6.00011 15.5605 6.43945C15.8812 6.7601 15.9668 7.2233 15.9902 8H5.00977C5.03317 7.2233 5.11881 6.7601 5.43945 6.43945C5.87879 6.00011 6.58579 6 8 6H13ZM13 4C13.465 4 13.6979 3.99967 13.8887 4.05078C14.3679 4.17932 14.7472 4.53696 14.9111 5H6.08887C6.25285 4.53696 6.63207 4.17932 7.11133 4.05078C7.30208 3.99967 7.53501 4 8 4H13Z" fill="currentColor"/>
</svg>
