<svg width="24" height="24" viewBox="0 0 24 24" fill="none" xmlns="http://www.w3.org/2000/svg">
<path d="M14 20C14 20.5304 13.7364 21.039 13.2676 21.4141C12.7987 21.7891 12.163 22 11.5 22C10.837 22 10.2013 21.7891 9.73242 21.4141C9.26358 21.039 9 20.5304 9 20H14ZM13 4.17578C15.8665 4.8531 18 7.42657 18 10.5V16.5L20 18V19H3V18L5 16.5V10.5C5 7.42657 7.13351 4.8531 10 4.17578V3.5C10 2.67157 10.6716 2 11.5 2C12.3284 2 13 2.67157 13 3.5V4.17578ZM7 17H16V10.5C16 8.37567 14.5253 6.59116 12.54 6.12207L11.5 5.87598L10.46 6.12207C8.47472 6.59116 7 8.37567 7 10.5V17Z" fill="currentColor"/>
</svg>
