<svg width="140" height="100" viewBox="0 0 140 100" fill="none" xmlns="http://www.w3.org/2000/svg">
<path d="M137.108 22.7984C137.108 22.7984 135.768 13.4337 131.685 9.2939C126.454 3.87907 120.649 3.87907 117.97 3.56048C98.831 2.15893 70.0596 2.15894 70.0596 2.15894H69.9959C69.9959 2.15894 41.2881 2.15893 22.0859 3.56048C19.4066 3.87907 13.6012 3.87907 8.37009 9.2939C4.28722 13.4346 2.94743 22.7984 2.94743 22.7984C2.94743 22.7984 1.60764 33.8192 1.60764 44.84V55.1601C1.60764 66.1809 2.94743 77.2018 2.94743 77.2018C2.94743 77.2018 4.28722 86.5664 8.37009 90.7062C13.6012 96.1211 20.4273 95.9299 23.4894 96.5033C34.4622 97.5226 69.9959 97.8412 69.9959 97.8412C69.9959 97.8412 98.7673 97.7775 117.906 96.4396C120.585 96.1211 126.391 96.1211 131.622 90.7062C135.705 86.5655 137.044 77.2018 137.044 77.2018C137.044 77.2018 138.384 66.1809 138.384 55.1601V44.84C138.512 33.8192 137.108 22.7984 137.108 22.7984Z" fill="url(#paint0_linear_26_33)"/>
<path d="M97.9511 65.6182L44.9706 76.3672L43.7773 70.4864L96.7577 59.7373L97.9511 65.6182Z" fill="white"/>
<path d="M93.9599 33.6588C93.9599 37.5248 90.8259 40.6588 86.9599 40.6588C83.0939 40.6588 79.9599 37.5248 79.9599 33.6588C79.9599 29.7928 83.0939 26.6588 86.9599 26.6588C90.8259 26.6588 93.9599 29.7928 93.9599 33.6588Z" fill="white"/>
<path d="M60.0402 33.6588C60.0402 37.5248 56.9062 40.6588 53.0402 40.6588C49.1742 40.6588 46.0402 37.5248 46.0402 33.6588C46.0402 29.7928 49.1742 26.6588 53.0402 26.6588C56.9062 26.6588 60.0402 29.7928 60.0402 33.6588Z" fill="white"/>
<linearGradient id="paint0_linear_26_33" x1="70" y1="2.15894" x2="70" y2="97.8412" gradientUnits="userSpaceOnUse">
<stop stop-color="#BB0200"/>
<stop offset="1" stop-color="#8D0202"/>
</linearGradient>
</svg>
